# xmcd
#
# Track frame offsets: 
#        150
#        11690
#        23832
#        37270
#        49820
#        59970
#        72520
#        83605
#        97565
#        109865
#        120872
#        130432
#        141805
#        153590
#        161617
#        179112
#        192682
#        204837
#        214692
#        226897
#
# Disc length: 3183 seconds
#
# Revision: 1
# Processed by: cddbd v1.5.2PL0 Copyright (c) Steve Scherf et al.
# Submitted via: ExactAudioCopy v0.99pb3
#
DISCID=200c6d14
DTITLE=Jerry Lee Lewis - The Country Collection
DYEAR=1998
DGENRE=Country
TTITLE0=Heartaches By The Number
TTITLE1=Green Green Grass Of Home
TTITLE2=Help Me Make It Through The Night
TTITLE3=Detroit City
TTITLE4=King Of The Road
TTITLE5=I'm So Lonesome I Could Cry
TTITLE6=Break My Mind
TTITLE7=Sweet Dreams
TTITLE8=Reuben James
TTITLE9=Another Place Another Time
TTITLE10=Before The Next Teardrop Falls
TTITLE11=Pick Me Up On Your Way Home
TTITLE12=What's Made Milwaukee Famous (Has Made A Loser Out Of Me)
TTITLE13=Louisiana Man
TTITLE14=Middle Age Crazy
TTITLE15=I'm A Lonesome Fugitive
TTITLE16=She Even Woke Me Up To Say Goodbye
TTITLE17=Today I Started Loving You Again
TTITLE18=I Forgot More Than You'll Ever Enow
TTITLE19=There Stands The Glass
EXTD=Spectrum Music. CD 554 379-2. Made in the UK. 
EXTT0=
EXTT1=
EXTT2=
EXTT3=
EXTT4=
EXTT5=
EXTT6=
EXTT7=
EXTT8=
EXTT9=
EXTT10=
EXTT11=
EXTT12=
EXTT13=
EXTT14=
EXTT15=
EXTT16=
EXTT17=
EXTT18=
EXTT19=
PLAYORDER=
